<svg xmlns="http://www.w3.org/2000/svg" width="195" height="51" viewBox="0 0 195 51" fill="none">
  <path d="M194.86 34.2021L183.465 7.21523C183.002 6.26901 182.486 5.81841 181.352 5.81841H176.402C175.267 5.81841 174.7 6.26901 174.288 7.21523L162.841 34.2021C162.583 34.7428 162.583 35.4634 163.718 35.4634H169.132C170.266 35.4634 170.678 35.1934 171.091 34.112L172.535 30.5528H185.167L186.611 34.112C187.023 35.1934 187.436 35.4634 188.57 35.4634H193.984C195.118 35.4634 195.118 34.7428 194.86 34.2021ZM175.01 24.2453L178.876 14.2886L182.744 24.2453H175.01Z" fill="#E5E7EB"/>
  <path d="M128.416 29.156H111.636V23.209H125.733C126.943 23.209 127.259 22.7134 127.259 21.9026V18.3884C127.259 17.5773 126.943 17.0819 125.733 17.0819H111.636V12.171H127.522C128.732 12.171 129.047 11.6753 129.047 10.8645V7.12525C129.047 6.31402 128.732 5.81841 127.522 5.81841H104.851C103.641 5.81841 103.325 6.31402 103.325 7.12525V34.1571C103.325 34.9679 103.641 35.4634 104.851 35.4634H128.416C129.626 35.4634 129.941 34.9679 129.941 34.1571V30.4624C129.941 29.6517 129.626 29.156 128.416 29.156Z" fill="#E5E7EB"/>
  <path d="M99.5848 5.93945H74.8541C73.6281 5.93945 73.3085 6.47056 73.3085 7.33982V11.3468C73.3085 12.2157 73.6281 12.7469 74.8541 12.7469H83.0622V34.0618C83.0622 35.172 83.6484 35.4617 84.6078 35.4617H89.8845C90.8436 35.4617 91.43 35.1724 91.43 34.0618V12.7469H99.5848C100.811 12.7469 101.13 12.2157 101.13 11.3468V7.33982C101.13 6.47056 100.811 5.93945 99.5848 5.93945Z" fill="#E5E7EB"/>
  <path d="M159.179 5.81841H154.051C153.09 5.81841 152.503 6.08895 152.503 7.12525V22.7584L141.181 7.35033C140.486 6.44911 140.112 5.81841 138.777 5.81841H133.757C132.529 5.81841 132.208 6.31402 132.208 7.12525V34.1571C132.208 35.1934 132.796 35.4634 133.757 35.4634H139.045C140.006 35.4634 140.593 35.1934 140.593 34.1571V18.4785L151.915 33.9316C152.609 34.8328 152.983 35.4634 154.318 35.4634H159.179C160.407 35.4634 160.727 34.9679 160.727 34.1571V7.12525C160.727 6.08895 160.14 5.81841 159.179 5.81841Z" fill="#E5E7EB"/>
  <path d="M62.9535 18.3129C60.8033 17.5919 52.9028 16.6009 52.9028 13.8525C52.9028 11.825 55.8587 11.2393 57.6325 11.2393C59.2447 11.2393 61.1797 11.6449 62.2008 12.456C62.8457 12.9964 63.1147 13.3569 63.3296 13.8075C63.5982 14.3932 63.7597 15.0239 64.7807 15.0239H70.048C71.2843 15.0239 71.6067 14.8438 71.6067 13.7625C71.6067 7.81551 64.1358 5.20232 57.3098 5.20232C50.5918 5.42774 44.2496 8.31089 44.2496 14.1681C44.2496 19.8896 49.2481 21.6917 54.6766 23.1336C59.2447 24.35 64.0283 24.395 64.0283 26.9178C64.0283 29.4411 61.6636 29.9817 58.7613 29.9817C56.7726 29.9817 54.5691 29.5762 53.494 28.4948C52.7952 27.8191 52.5267 27.2334 52.473 26.6477C52.3652 25.5213 51.7742 25.3863 50.538 25.3863H45.3244C44.0886 25.3863 43.7659 25.6113 43.7659 26.6477C43.7659 32.9552 51.5053 36.1988 58.2238 36.1988C66.5009 36.1988 72.5203 33.1353 72.5203 26.7378C72.5203 20.6107 66.8231 19.3039 62.9535 18.3129Z" fill="#E5E7EB"/>
  <path d="M128.392 43.0621H129.91L126.545 47.7309H128.381V46.251H129.763V47.7309H130.843V49.0124H129.763V50.6949H128.381V49.0124H124.871V47.9203L128.392 43.0621ZM121.472 46.8618C121.851 46.8618 122.163 46.7373 122.408 46.4885C122.653 46.2396 122.776 45.9259 122.776 45.547C122.776 45.1681 122.653 44.856 122.408 44.611C122.163 44.3658 121.851 44.2432 121.472 44.2432C121.108 44.2432 120.804 44.3675 120.558 44.6165C120.313 44.8654 120.191 45.1755 120.191 45.547C120.191 45.9259 120.311 46.2396 120.553 46.4885C120.794 46.7373 121.101 46.8618 121.472 46.8618ZM124.225 45.6249C124.225 46.0855 124.128 46.5498 123.935 47.0178C123.742 47.4857 123.43 48.0244 122.999 48.6336L121.539 50.6949H119.923L121.806 48.0429C121.717 48.0503 121.649 48.056 121.6 48.0596C121.552 48.0634 121.509 48.0653 121.472 48.0653C120.677 48.0653 120.016 47.8256 119.489 47.3465C118.961 46.8673 118.698 46.2675 118.698 45.547C118.698 44.804 118.961 44.1856 119.489 43.6916C120.016 43.1977 120.677 42.9506 121.472 42.9506C122.267 42.9506 122.924 43.205 123.445 43.7139C123.965 44.2227 124.225 44.8598 124.225 45.6249ZM115.065 46.8618C115.444 46.8618 115.756 46.7373 116.001 46.4885C116.246 46.2396 116.369 45.9259 116.369 45.547C116.369 45.1681 116.246 44.856 116.001 44.611C115.756 44.3658 115.444 44.2432 115.065 44.2432C114.701 44.2432 114.396 44.3675 114.151 44.6165C113.906 44.8654 113.784 45.1755 113.784 45.547C113.784 45.9259 113.904 46.2396 114.146 46.4885C114.387 46.7373 114.694 46.8618 115.065 46.8618ZM117.817 45.6249C117.817 46.0855 117.721 46.5498 117.528 47.0178C117.335 47.4857 117.022 48.0244 116.592 48.6336L115.132 50.6949H113.516L115.399 48.0429C115.31 48.0503 115.241 48.056 115.193 48.0596C115.145 48.0634 115.102 48.0653 115.065 48.0653C114.27 48.0653 113.609 47.8256 113.082 47.3465C112.554 46.8673 112.291 46.2675 112.291 45.547C112.291 44.804 112.554 44.1856 113.082 43.6916C113.609 43.1977 114.27 42.9506 115.065 42.9506C115.86 42.9506 116.517 43.205 117.037 43.7139C117.557 44.2227 117.817 44.8598 117.817 45.6249ZM109.338 44.4215H107.922V43.0621H110.864V50.6949H109.338V44.4215Z" fill="#E5E7EB"/>
  <mask id="mask0_3_49" style="mask-type:luminance" maskUnits="userSpaceOnUse" x="0" y="0" width="35" height="40">
    <path d="M22.5618 10.5513C22.6109 11.427 20.7663 11.4465 20.3147 9.83673C20.0008 8.71762 19.5556 5.13575 19.3861 3.9503C19.2299 2.85874 18.9387 2.14656 17.9629 1.3329C17.879 0.952386 16.9912 0.680441 17.904 0.182099C18.1997 0.0206746 18.5783 -0.0312769 18.9001 0.017711C19.4573 0.102381 19.94 0.722907 20.2517 1.11525C21.5559 2.75684 21.5951 3.67396 21.6704 5.68452C21.7493 7.79297 20.9926 10.1893 22.5618 10.5513ZM3.90306 26.0001L1.8989 27.63C1.65082 27.412 1.38008 26.5671 1.15821 26.2965C1.32567 25.7199 1.81423 25.444 2.20091 25.0843C2.90614 24.428 3.53736 23.8021 4.33678 23.2643C4.69406 23.0238 5.16702 22.761 5.51603 22.6151C6.21093 22.3246 7.3913 22.1937 8.19953 22.0737C8.71925 21.9966 10.5807 22.0043 11.1473 22.092C11.2881 22.381 11.4264 22.8832 11.3629 23.2636C11.0168 23.4928 9.28935 23.8636 8.66328 23.9758C8.18494 24.0613 7.74097 24.1203 7.27555 24.2563C7.01253 24.3332 6.70634 24.4272 6.40343 24.5322C5.88461 24.7121 5.47058 24.8866 5.08488 25.1087C4.68899 25.3365 4.32263 25.6147 3.90306 26.0001ZM11.0491 18.4041C11.075 18.7883 11.2383 19.0687 11.0596 19.5122C9.07731 19.4227 7.41384 18.6616 5.38401 18.9459C4.49995 19.0696 2.27037 19.3907 1.41003 19.8217C0.888911 20.0827 0.633974 20.5674 0.114494 20.4722C-0.0495844 20.1088 0.0843113 19.5669 0.28894 19.125C0.523334 18.7402 0.584915 18.7781 0.995933 18.5815C1.48765 18.3463 1.97982 18.1321 2.50371 17.941C3.10789 17.7205 4.02735 17.5164 4.68676 17.3999C6.31619 17.1121 8.43821 17.2874 9.97719 17.7987C10.9188 18.1116 10.7548 18.0584 11.0491 18.4041ZM1.16308 13.4797C0.92526 13.1935 1.73607 12.7062 2.01187 12.6138C4.72424 11.3682 7.32075 12.3833 9.89307 13.6049C10.3552 13.8243 11.4175 14.3553 11.7887 14.7022C12.0163 14.9147 11.9933 14.964 11.8804 15.308C11.7213 15.7927 11.5045 16.3148 10.994 16.1382C10.6624 16.0234 8.48165 14.8 6.77564 14.1862C4.70237 13.4402 3.69379 13.3684 1.77362 13.5362C1.56435 13.5836 1.32934 13.6799 1.16308 13.4797ZM7.78874 30.7207C7.45927 31.2044 6.14041 33.6602 5.90197 33.8133C5.45554 33.6258 5.36954 32.9321 4.76636 32.7625C4.88368 32.405 6.1729 30.5413 6.48436 30.0258C7.18503 28.8657 7.38034 28.4496 8.28698 27.549C8.62506 27.2132 8.99529 26.8763 9.34051 26.605C9.54574 26.4438 9.68567 26.3885 9.89283 26.2544C10.0887 26.1276 10.2369 26.0113 10.4354 25.879C10.9224 25.5543 12.0058 24.7778 12.5578 25.5031C12.7727 25.7854 12.7094 25.8422 12.5146 26.1171C12.2109 26.5457 11.66 27.1181 11.4356 27.2744C9.30869 28.7556 9.53808 28.1525 7.78874 30.7207ZM15.043 27.7128C14.7151 28.4405 15.2054 28.1445 14.1218 30.2253C13.1053 32.1771 12.6145 33.3353 12.0703 35.4943C11.8006 36.5641 11.6064 36.9984 10.8898 37.7814L10.6312 37.5016C10.6217 36.7523 10.4123 36.8429 9.81027 36.4159C9.96568 35.9759 10.3017 35.7 10.4381 35.2349C10.5542 34.8394 10.5423 34.3809 10.6015 33.9637C11.0556 30.7558 13.1615 30.3433 14.6116 27.1779C14.9982 27.3628 14.8831 27.4171 15.043 27.7128ZM17.2575 11.1651C17.1247 11.4813 16.7194 11.4797 16.415 11.3714L15.8331 10.252C15.3395 9.32146 14.9138 8.2719 14.2502 7.46143C11.7689 4.43122 10.6616 4.77184 9.19824 4.17982C8.70365 3.97971 8.63356 3.72025 9.17738 3.45794C10.0928 3.0165 12.0919 4.22471 12.7416 4.52165C11.5841 2.62494 10.0169 2.93459 10.5722 2.42362C10.7879 2.22507 11.0373 2.29226 11.3004 2.3354C12.8039 2.83663 13.7426 4.06738 14.4453 5.31749L15.6457 7.66861C15.8395 8.17947 16.0362 8.4282 16.199 8.83821L17.2575 11.1651ZM6.2305 16.0816C5.14864 15.7206 4.17525 15.5339 3.15609 15.5938C2.42414 15.6367 1.58362 15.8138 1.08458 15.9206C0.59715 16.0249 0.442485 16.0658 0.425239 15.5508C0.53526 14.1304 2.51665 13.8135 3.61231 13.9659C4.46259 14.0841 5.3399 14.3567 6.17348 14.6442C7.07609 14.9557 7.97002 15.3092 8.85169 15.6854C9.30417 15.8785 10.7362 16.3892 11.0903 16.6578C11.5686 17.0203 11.0942 17.5886 10.8134 17.8409C10.4189 17.7577 7.57027 16.4682 6.2305 16.0816ZM7.60787 34.8536L7.40456 35.18C7.04373 34.8096 7.34055 34.6422 6.7407 34.1716L6.5721 34.018C6.78866 33.5654 7.66843 32.6964 8.21634 31.7151C8.7889 30.6893 9.09622 30.1133 9.82793 29.2922C10.57 28.6154 12.0587 27.6362 12.5959 26.7001C12.8028 26.3398 12.9118 26.0536 13.3524 26.2497C14.3849 26.7094 13.1841 28.4766 12.7803 29.0009C11.9891 30.028 11.0374 30.8784 10.0957 31.6503C8.47335 32.9799 8.30522 33.1391 7.60787 34.8536ZM4.28823 7.70597C4.35613 7.29373 4.77908 7.03138 5.02162 6.93486C6.06522 6.51932 7.77514 6.88489 8.7733 7.25048C10.6362 7.93283 11.7198 9.03645 12.7736 10.5574C13.2363 11.2251 13.5123 11.7121 14.1384 12.1813C14.8641 12.7249 13.7029 13.0836 13.2033 12.8919C12.5405 12.6376 11.6011 10.8854 10.0383 9.8721C9.08085 9.25115 7.0782 7.58779 5.66824 7.73712L4.61049 7.8709C4.23784 7.87137 4.30527 7.75327 4.28823 7.70597ZM30.347 34.2606C30.1975 34.5641 30.1237 34.7305 29.8571 35.0446C29.5436 34.8642 29.5685 34.7679 29.3149 34.577C29.3758 34.7687 29.6078 35.1481 29.5786 35.3694C29.5671 35.456 29.5295 35.5261 29.4779 35.5862C29.2702 35.8281 29.0105 35.941 28.718 36.0077C28.2689 36.1099 28.4132 36.1912 27.874 34.8977C27.4788 33.9497 26.6836 33.0331 26.6499 31.4175C27.1944 32.1593 27.1318 32.1554 27.5262 32.7329C27.8666 33.2312 28.1534 33.5014 28.7565 33.8779C28.5315 33.4407 28.0327 32.8308 27.7359 32.392C26.8027 31.0127 26.6875 30.8231 25.421 29.5653C24.7877 28.9364 24.2014 29.1448 24.1414 28.2311C24.3356 28.0027 24.9174 27.7895 25.1988 27.8487C25.8924 27.9942 27.0279 29.7831 27.5951 30.3935C28.3899 31.2486 29.6602 32.553 30.2219 33.4884C30.4271 33.83 30.5088 33.9316 30.347 34.2606ZM19.7943 38.7165C19.7247 38.5 19.6902 38.3714 19.6304 38.1833C19.24 36.9551 18.8636 36.1674 19.0244 34.7754C19.1282 33.8766 19.406 32.9936 19.515 32.1017C19.5932 31.4608 19.3713 29.8788 19.4525 29.6648C19.6907 29.5673 19.8584 29.5066 20.1943 29.6174C20.2746 29.8699 20.3584 29.999 20.4169 30.2561C20.8855 32.3149 20.3672 33.1092 20.6932 35.1136C20.8581 36.1272 21.223 36.6814 21.4321 37.6619C21.7712 39.2526 21.399 39.3669 20.9228 39.3434C19.9993 39.2978 20.0634 39.5538 19.7943 38.7165ZM16.5219 29.9714C15.466 31.6786 14.2623 34.198 13.8413 36.1951C13.6643 37.0351 13.5912 37.6096 13.0069 38.2065C12.4278 37.6884 12.3856 37.7358 11.6111 37.6287C11.7467 37.2792 12.034 36.8299 12.233 36.5087C12.7828 35.621 12.9682 33.8863 13.4358 32.6792C13.9859 31.2591 15.6456 29.4064 15.497 28.0153C15.9316 28.2046 16.6419 28.8948 16.8314 29.1935L16.5219 29.9714ZM17.0726 39.0784C16.8955 38.9533 16.5296 38.6293 16.382 38.5607C15.9664 38.3676 15.9805 38.6873 15.5548 38.6669C15.6294 37.8012 15.8179 37.2822 15.68 36.4594C15.5729 35.8211 15.464 35.1099 15.5115 34.3712C15.6174 32.719 16.8968 31.0539 17.0748 29.4183C17.1623 29.0852 17.144 28.8106 17.5304 28.977C18.9306 29.5797 17.2815 32.2729 17.0842 33.8983C16.9589 34.9295 17.3424 36.5756 17.4447 37.8164C17.4845 38.2999 17.4806 38.7636 17.0726 39.0784ZM2.8168 9.38811C2.83615 9.09869 2.9434 9.02405 3.1038 8.81808C3.22408 8.70039 3.28211 8.64068 3.40827 8.55722C3.44849 8.53058 3.52776 8.48678 3.55971 8.46502C4.25683 7.98821 5.82689 8.52426 6.49827 8.87912C7.31272 9.30949 8.20827 9.93964 8.91172 10.4566C9.77568 11.0914 11.476 12.403 12.3546 12.9077C12.8004 13.1639 13.4057 13.2063 12.8811 13.8796C12.239 14.7038 7.63829 11.0378 5.66072 10.1272C5.10211 9.85276 4.14221 9.45843 3.50311 9.4906C3.24708 9.50351 3.06191 9.57768 2.8168 9.38811ZM3.17377 29.5472C2.94979 29.2633 2.94249 29.2903 2.80919 28.9622C2.66126 28.5982 2.67399 28.5488 2.99038 28.2168C3.55429 27.625 4.80221 26.4645 5.4269 26.0413C6.26478 25.4738 8.34414 24.4497 9.26501 24.3236C9.75708 24.2561 10.1715 24.2623 10.5464 24.0221C10.8447 23.8309 11.4009 23.5481 11.8009 23.7426C11.7551 24.847 10.8942 25.3625 9.94458 25.6712C8.45954 26.154 8.76644 26.0994 7.52671 26.5994C6.71364 26.9272 6.01682 27.2881 5.24329 27.8409C4.87108 28.107 4.5603 28.3832 4.2029 28.701C4.02302 28.861 3.8675 28.9952 3.70077 29.1661C3.28655 29.5909 3.45702 29.5358 3.17377 29.5472ZM26.4581 37.318C26.2901 37.4038 26.1752 37.5169 25.9365 37.6302C25.6381 37.772 25.6715 37.8741 25.3069 37.7926L25.0577 37.2135C24.8156 36.2634 24.6215 36.4165 24.259 35.6953C23.8804 34.9419 23.7031 34.4218 23.4361 33.5345C23.2047 32.7652 22.9564 32.0555 22.6572 31.3545C22.5681 31.1458 22.5033 31.0134 22.4065 30.8081L21.6519 29.2855C22.2606 29.1759 22.4482 29.3302 23.0894 29.659C23.9816 30.1164 24.0686 30.5876 24.4165 31.7061C24.9833 33.5278 24.8335 33.19 25.8036 34.9832C26.2773 35.8589 26.827 36.6359 26.4581 37.318ZM14.8822 10.0565C15.0639 10.3675 15.8061 11.6836 15.7501 11.8622C15.6066 12.034 15.6298 11.9967 15.4562 12.0694C15.0474 12.1832 15.0899 11.9577 14.6555 11.259C13.3758 9.20005 10.4437 6.72504 8.0316 6.09866C7.50771 5.96267 6.96304 5.96731 6.55288 5.85179C6.73606 4.25135 10.1002 5.42926 11.2459 6.0898C12.1686 6.62189 12.462 7.02319 13.0808 7.70982C13.2255 7.87035 13.5733 8.30107 13.8977 8.69594C14.346 9.24186 14.5328 9.45807 14.8822 10.0565ZM19.5351 38.9428C19.3406 39.459 19.159 39.1867 18.5136 39.1945C17.4578 39.2072 17.7576 38.987 17.901 38.3763C17.9547 38.1484 17.9759 37.9654 17.9904 37.7306C18.047 36.8143 17.5796 35.5956 17.5476 34.3528C17.5238 33.4249 18.2218 32.0022 18.392 30.3699C18.4205 30.0969 18.3565 29.3627 18.3959 29.3096C18.9837 29.2035 19.046 29.8615 19.0988 30.2179C19.4525 32.6086 18.9815 32.7304 18.7817 34.1759C18.4093 36.8707 19.1435 37.3792 19.5351 38.9428ZM32.0438 27.643C31.2832 27.3727 30.1558 27.3034 29.5934 27.0134C29.3799 26.9033 26.9194 25.3648 26.8833 25.3239C26.8533 25.059 27.1554 24.7535 27.3452 24.6294C27.5683 24.4837 27.9881 24.6564 28.291 24.8039C28.6098 24.9591 28.8068 25.1536 29.1374 25.311C31.094 26.2419 31.7401 25.8035 34.0602 26.908C34.427 27.1365 34.4011 27.2376 34.1884 27.6703C34.0532 27.9453 33.8429 28.2752 33.6493 28.4123C32.9106 28.1602 32.5817 27.8343 32.0438 27.643ZM27.9026 36.4878L27.5772 36.7206C27.3176 36.7584 27.3342 36.8192 27.0665 36.8936C26.8734 36.6275 26.9334 36.1732 26.7324 35.7883C26.0404 34.4632 25.4179 33.0754 24.8308 31.6785C24.6317 31.2047 24.1016 30.1075 23.8199 29.699C23.5055 29.2431 23.135 28.9568 23.1175 28.7985C23.8265 28.6335 24.8887 29.3564 25.4532 30.1049C26.4159 31.3808 26.4476 32.6522 27.1783 34.2914C27.5623 35.1529 28.394 35.7103 27.9026 36.4878ZM15.4553 18.7061C12.7067 16.6899 12.8908 17.5171 11.958 17.0395C11.9763 16.9142 12.2755 16.0339 12.3208 15.9505C12.6081 15.9104 12.7536 15.9444 13.1082 16.0392C13.0963 16.0218 13.082 15.9812 13.0661 15.9923L12.9038 15.8292C12.7988 15.7176 12.8431 15.8672 12.7984 15.6783C12.8842 15.5017 13.0611 15.1365 13.2156 15.0143C13.7089 14.6229 15.2856 15.8097 15.6154 16.2262C15.869 16.5464 16.0367 16.7934 16.2957 17.1402C16.5646 17.5003 16.8367 17.5913 17.0019 17.9798C16.8728 18.1685 16.6885 18.2786 16.5321 18.3767C15.7914 18.1316 15.6455 17.0066 14.4394 16.5951L15.4526 17.6047C15.7932 17.9465 16.1426 18.2535 16.3505 18.5639C16.1792 19.0581 15.9156 18.9144 15.4553 18.7061ZM21.855 38.3874C21.6497 37.8582 21.6603 36.9746 21.6461 36.5164C21.6334 36.1083 21.5061 35.7313 21.4158 35.4061C21.3134 35.0376 21.247 34.7139 21.2075 34.2903C21.0347 32.4322 21.33 32.3446 20.6757 30.2929C20.6106 30.0888 20.5318 29.9994 20.5123 29.8068C21.0437 29.5899 21.3297 29.7377 21.6338 30.2363C22.3082 31.3421 22.0107 32.5892 22.1821 34.0736C22.3288 35.3443 22.4776 35.4246 22.6983 36.6163C23.0251 38.3824 22.879 38.5 22.5334 38.6295C22.1337 38.7791 22.0707 38.9435 21.855 38.3874ZM33.054 30.3185C32.8741 30.8185 32.8765 31.1697 32.3572 30.8143C31.9402 30.5289 31.5142 30.1206 31.1569 29.8193C29.6549 28.5525 27.7769 27.4505 25.872 26.8062C26.3764 25.8677 26.6893 25.8326 27.6514 26.3437C28.8846 26.9989 30.2876 27.8813 31.3507 28.7326C32.4591 29.6203 32.7076 29.6474 32.9818 29.7773C33.3009 29.9284 33.1721 29.991 33.054 30.3185ZM31.3444 32.6494C31.3206 32.8013 31.3962 32.9411 31.2673 33.1712C31.1326 33.4116 31.0399 33.5537 30.8879 33.574C30.5401 33.6209 30.3776 32.8798 30.2674 32.6153C29.5569 31.3601 29.2191 31.3245 28.2275 30.373C27.2844 29.4678 26.1177 28.1965 25.3257 27.462C25.4782 27.341 25.4582 27.3546 25.8203 27.2805C26.2615 27.1901 26.9727 27.7449 27.358 27.9789C28.9997 28.9761 30.4632 31.6791 31.3444 32.6494ZM33.5909 25.0861C32.5793 24.8191 31.1358 24.1547 30.2342 23.8121C29.6364 23.5848 28.9764 23.2506 28.3703 23.2678C27.9076 23.2809 27.0559 23.6038 27.1062 22.7313C27.2221 22.6112 27.7306 22.3653 27.8596 22.3133C28.5256 22.0445 30.2102 22.7128 30.8337 23.0085C32.2285 23.67 33.5168 23.6554 33.8255 23.7936C34.2253 23.9727 34.297 24.2727 34.2482 24.5906C34.1526 25.2148 34.1105 25.2233 33.5909 25.0861ZM4.25738 32.1186L3.85575 31.6138L3.71812 31.3342C3.66969 31.2518 3.64948 31.2219 3.59719 31.1376C3.30457 30.6669 3.05052 30.4466 3.63478 29.713C3.9871 29.2706 4.53366 29.2221 5.27103 28.7207C5.85022 28.3268 6.27617 27.8908 6.86285 27.5117C7.21167 27.2863 8.26111 26.6522 8.55307 26.653C8.33042 26.9415 8.14977 26.8172 7.90547 27.1226C7.71566 27.3601 7.57514 27.5654 7.38257 27.7854C5.37032 30.0837 6.02852 29.5131 4.62199 31.8847C4.44645 32.1806 4.489 32.2464 4.25738 32.1186ZM34.1886 25.7718C34.2585 25.9546 34.2597 26.0375 34.0684 26.4838C33.6975 26.503 33.261 26.3667 32.8499 26.2392C31.8027 25.8477 30.781 25.4394 29.7293 25.0618C29.2188 24.8785 28.7074 24.6898 28.1922 24.5132C27.6197 24.3169 27.1385 24.1532 27.3445 23.5793C29.3431 23.7901 28.8155 23.6836 30.7565 24.436C31.7087 24.8051 33.1322 25.1421 33.827 25.408C34.1159 25.5186 34.0811 25.4899 34.1886 25.7718ZM33.583 21.357C33.6168 21.4896 33.6062 21.5454 33.4857 21.8301C32.3967 21.9443 31.2354 21.543 30.1187 21.7212C29.9097 21.7546 26.0319 22.5106 27.1653 21.5313C27.3817 21.3443 27.9771 21.084 28.2487 20.9916C29.5502 20.5495 31.9482 20.3597 33.1847 20.8927C33.5087 21.0321 33.4993 21.0274 33.583 21.357ZM0.00649703 18.4532C-0.03266 18.2222 0.110948 16.7612 0.282191 16.5295C0.497781 16.2374 1.45582 16.0645 1.87835 16.0116C3.03582 15.8665 4.59168 16.1045 5.8428 16.5991C5.82413 16.6054 5.80291 16.593 5.7852 16.6132L5.61906 16.6418C5.56544 16.647 5.47812 16.6451 5.41697 16.6465C3.89424 16.6823 1.93945 17.3329 0.747732 18.1821C0.487724 18.3674 0.35684 18.5517 0.00649703 18.4532ZM2.27267 21.7622C1.99916 21.6833 1.48753 21.9625 1.22896 22.1147C0.840364 22.3433 0.663729 22.605 0.374192 23.0546L0.107198 22.2477C-0.00488111 21.9089 -0.0106535 21.6377 0.194522 21.3151C0.416313 20.9667 0.828545 20.8828 1.38924 20.6994C1.90786 20.5297 2.32719 20.3614 2.86676 20.1913C3.06866 20.1277 3.3112 20.0587 3.53639 19.9966C4.82518 19.6409 5.61166 19.6148 6.73251 19.6016C8.17313 19.5848 9.52382 19.6287 10.9414 19.9654C11.1249 20.2619 11.2756 21.2388 10.7318 21.4131C10.464 21.4989 9.47374 21.4184 9.12075 21.4086C8.12559 21.3806 7.69597 21.3714 6.77974 21.5765C5.9201 21.7688 4.33565 22.9152 3.53518 23.39C3.05392 23.6754 2.50569 24.0199 2.01001 24.4615C1.05595 25.3116 1.26589 25.4191 0.885484 24.7482C0.625357 24.2895 0.466277 24.1671 0.818357 23.4155C1.18064 22.6421 1.77496 22.2304 2.27267 21.7622ZM27.3254 12.7166C28.1685 12.877 27.7543 13.3343 27.4818 14.016C26.578 16.2772 26.6739 15.144 25.6834 16.4225C25.3629 16.8359 25.2069 17.401 24.9079 17.7595C24.5338 17.5631 24.402 17.0151 24.5281 16.5663C24.6696 16.0634 25.0355 15.601 25.3244 15.2368C25.6831 14.785 25.8803 14.5097 26.133 13.9375C26.5139 13.0753 26.4663 12.4116 27.3254 12.7166ZM26.3339 12.6956C25.8593 14.2298 25.3781 14.507 24.5056 15.7893C24.2501 16.1647 24.0357 16.8979 23.8942 17.0419C23.2857 17.0603 23.1669 16.3966 23.2868 15.9076C23.6348 14.4865 24.3465 14.0235 24.9852 13.1547C25.1369 12.9483 25.6175 11.8977 26.0323 11.9611C26.4943 12.0317 26.4307 12.3828 26.3339 12.6956ZM24.8397 37.7837C24.8501 37.8852 24.8586 37.9181 24.8153 38.0887C24.5654 38.1934 24.4803 38.2135 24.2055 38.2855C24.0541 38.3251 23.7205 38.3864 23.6112 38.4456C23.2854 38.382 23.2532 38.0787 23.1832 37.8151C22.7576 36.2121 22.3512 33.8399 22.6049 32.2085C23.2492 32.9575 23.6928 35.8801 24.0417 36.4911C24.2129 36.7908 24.6303 37.5836 24.8397 37.7837ZM19.6856 16.4599C19.4692 16.5791 19.1279 16.5489 18.884 16.4576C18.5321 16.3261 18.5416 16.2065 18.4791 15.9041L17.8022 13.9812C17.7063 13.8003 17.6246 13.5361 17.5257 13.3938C17.2436 12.988 16.8205 12.8848 16.5938 12.3401C16.7707 12.1513 17.2625 11.9076 17.4848 11.8638C18.3022 12.4092 18.894 13.1925 19.1179 13.9194C19.236 14.3029 19.2941 14.7747 19.3127 15.2429C19.3608 16.4567 19.5402 15.8446 19.6856 16.4599ZM31.9509 17.7011C31.6837 18.3495 30.6358 18.0521 29.1378 19.0823C28.8788 19.2604 26.5217 20.4412 26.2016 19.9843C25.8662 19.5058 27.3398 18.8785 27.9476 18.5334C28.5628 18.1843 31.1697 17.19 31.6133 17.1825L31.9509 17.7011ZM32.5576 19.1638C32.1273 19.185 31.5637 19.4985 31.1533 19.6782C30.6983 19.8776 30.2049 19.89 29.697 20.0317C29.2324 20.1614 28.2583 20.7959 27.7304 21.0768C27.4829 21.2085 27.3233 21.2271 27.0778 21.3818C26.8437 21.22 26.6044 20.8534 26.7421 20.5507C26.9429 20.1089 28.6957 19.9076 29.285 19.6582C29.6284 19.5129 31.2857 18.3162 32.2337 18.1144C32.3381 18.092 32.4341 18.0818 32.5187 18.0865C32.6826 18.2842 32.701 18.9534 32.5576 19.1638ZM23.6572 11.736C24.1596 12.1931 23.9495 13.295 23.7144 13.9166C23.3939 14.7641 22.981 15.6258 22.7901 16.4771C21.182 16.3527 22.7436 13.8472 22.7746 12.7041C22.7834 12.3765 22.636 12.0754 22.6563 11.7511C22.6872 11.2616 22.8616 11.5138 23.2086 11.6051C23.4372 11.6653 23.467 11.6113 23.6572 11.736ZM20.4969 12.6744C20.9149 13.5404 20.5526 14.2319 20.566 15.4106C20.5711 15.8525 20.8803 16.5351 20.3624 16.4409C19.0454 16.2014 19.6732 13.5596 19.5315 12.6846C19.4575 12.2268 18.9909 11.9793 19.0196 11.5502C19.2344 11.4084 19.6996 11.3103 20.0307 11.4791L20.4969 12.6744ZM14.6994 21.0521C12.498 20.7883 13.0722 21.5999 11.7164 21.8544C11.0597 20.5062 11.6091 20.5967 11.9764 20.4483C12.3005 20.3175 13.3499 19.8958 13.5917 19.8747C13.9558 19.8429 14.5477 19.9871 14.9411 20.0976C15.5201 20.2602 15.8236 20.4469 15.781 20.9511C15.5367 21.0569 15.6142 21.0963 15.2727 21.0991C15.0772 21.1007 14.9044 21.0767 14.6994 21.0521ZM21.7368 16.3074C20.2302 16.2437 21.5067 13.8517 21.091 12.4691C21.0032 12.1771 20.5644 11.7749 20.3536 11.4009C20.6923 10.9816 20.9172 11.0664 21.3123 11.4702C21.7228 11.8898 21.4653 12.1595 21.7698 12.4344C21.8918 11.8449 21.5937 11.6003 21.6075 11.2163C22.0122 11.5537 22.5859 11.5157 22.4376 12.1428C22.2435 12.9644 21.6128 14.0897 21.698 15.0224C21.731 15.3825 21.9215 16.0045 21.7368 16.3074ZM14.0408 13.891L14.2408 13.9968C16.3801 14.7878 16.704 15.2901 17.5786 16.8415C17.7994 17.2332 17.7868 17.8029 17.1405 17.8336C16.9249 17.6561 16.7025 17.1308 16.5499 16.8814C15.9759 15.9427 15.9239 15.9357 14.8241 15.2077C14.4517 14.9612 13.9713 14.7571 13.6276 14.5166C13.7416 14.2043 13.8841 14.2758 14.0408 13.891ZM15.6676 13.136C15.5615 12.8238 16.0521 12.1398 16.6186 12.8793C16.9023 13.2498 17.176 13.5554 17.4568 13.9284C17.8059 14.3924 18.0172 15.1915 18.2135 15.7665C18.29 15.9905 18.3809 16.1327 18.462 16.3613C18.7827 17.2639 18.071 17.0289 17.721 16.5285C17.4719 16.1724 17.2664 15.7587 17.0627 15.4035C16.9439 15.1961 16.8809 14.9708 16.7818 14.7706C16.4819 14.1636 15.7526 13.3862 15.6676 13.136ZM9.21926 36.458C8.87532 36.3364 8.34823 36.0203 8.25503 35.7221C8.12637 35.3106 8.57927 34.909 8.69834 34.4948C9.17859 34.2475 9.99576 32.2945 10.6435 32.1595C10.6752 32.4106 10.2057 33.9982 10.108 34.3752C9.94259 35.0132 9.74436 36.2489 9.21926 36.458ZM15.0815 38.8186C14.3364 38.4473 13.9061 38.7547 13.4405 38.5939C13.7137 37.8008 14.039 37.9818 14.5056 36.4527C14.7489 35.6552 14.8633 34.877 15.072 34.1179C15.5467 34.5467 15.2642 35.696 15.361 36.3474C15.498 37.2687 15.7039 37.3829 15.0815 38.8186ZM13.5021 18.3934L15.4239 19.1353C15.6689 19.2274 15.921 19.3267 16.1236 19.3213C15.9934 19.7125 16.1379 19.7146 15.9112 20.0261C15.657 20.0451 14.0719 19.55 13.6091 19.4435L11.7271 19.1721C11.1405 19.0132 11.4343 18.3612 12.1969 18.2674C12.5653 18.2222 13.3539 18.4305 13.5021 18.3934ZM23.1805 21.6973C24.8879 21.4137 25.2285 21.5765 25.6812 20.6242C25.3157 20.6254 25.3032 20.7768 24.998 21.0294C24.5487 21.4012 23.3309 21.4681 22.7636 21.4033C23.0154 20.6595 23.6092 20.7983 24.229 20.6465C24.794 20.5081 25.0631 19.7585 25.7036 20.0072C25.8935 20.7172 25.4627 20.182 25.9545 20.6864C26.1423 20.879 26.2243 21.0657 26.226 21.3242L26.0101 21.4057C24.9492 21.6721 25.2316 21.8488 24.7815 21.9351C24.5539 21.9787 24.1977 21.9297 23.9394 21.9636C23.5952 22.0087 23.3317 22.0516 23.1805 21.6973ZM12.8659 23.4632C13.1205 23.4032 13.3929 23.2805 13.6398 23.2794C13.4849 23.5134 13.3412 23.5852 13.1375 23.7396L12.7477 24.1115C12.6572 24.1994 12.6994 24.1703 12.6214 24.2143C12.5086 24.019 12.4617 23.9567 12.5635 23.6731C12.0996 23.7179 11.8987 23.2264 12.1507 22.8417C12.4623 22.3666 13.5956 22.5023 14.2332 22.4279C14.5624 22.3894 14.8487 22.1893 15.2015 22.1051C15.5862 22.0134 16.0366 22.0713 15.8449 22.6016C15.7001 23.0019 15.2694 22.9445 14.9153 22.9622C14.0216 23.0069 13.3564 22.993 12.8659 23.4632ZM23.646 28.3947C22.7466 28.049 22.9495 27.425 22.7346 26.7973C22.5521 26.2642 22.3933 25.6982 21.9196 25.2461C22.7665 24.3228 23.2672 25.872 23.4774 26.3276C23.8157 27.06 23.8844 26.9447 24.1065 27.3143C24.3404 27.7034 23.9001 28.179 23.646 28.3947ZM1.98481 11.341C2.14486 10.8938 2.07588 10.6996 2.64168 10.328C3.08278 10.1043 3.57574 10.079 4.2018 10.1758C4.65327 10.2455 5.59695 10.4016 5.86534 10.7983C5.64083 11.201 4.3938 11.0822 3.87467 11.0579C3.07065 11.0202 2.82464 11.2928 2.3022 11.6037C1.98102 11.7948 1.86196 11.6837 1.98481 11.341ZM15.4588 23.1722C15.7565 23.1004 16.0802 22.88 16.4374 23.2154C16.2709 23.8263 15.8264 23.6412 14.7661 24.1383C14.005 24.4951 13.6922 24.9464 13.366 25.2063C13.1856 25.35 13.2742 25.2828 13.1437 25.3137L12.8461 24.4225C13.0688 23.9381 14.0989 23.4946 14.4761 23.3455C14.7699 23.2294 15.1106 23.2561 15.4588 23.1722ZM19.1301 29.194C19.1336 28.3529 19.0013 26.801 19.4102 25.9243C19.6184 25.8844 19.843 25.7162 20.0913 25.7699C20.3721 26.2355 19.9282 26.9101 19.9028 27.5594C19.8794 28.1601 20.0541 28.6246 19.7559 29.2936C19.52 29.3454 19.3884 29.3121 19.1301 29.194ZM18.3434 25.6668C18.1068 26.6644 16.7733 28.086 16.3791 28.1936C16.0428 27.4906 16.3176 27.2365 16.7786 26.4798C17.1492 25.8718 17.3567 25.3201 17.9749 25.2676L18.3434 25.6668ZM21.2773 25.8295C21.7005 26.6602 21.5494 26.9492 21.575 27.5477C21.5963 28.0477 21.7202 27.978 21.854 28.3302C22.0947 28.9635 21.4473 29.5557 20.8785 28.2967C20.764 28.0432 20.7395 27.8095 20.7356 27.4538C20.7267 26.6249 20.5195 25.9248 20.6112 25.68C20.8193 25.6831 21.0315 25.7239 21.2773 25.8295ZM32.3146 31.8468C32.2386 32.0108 32.1549 32.1695 32.0465 32.3058C31.801 32.6143 31.7669 32.6709 31.5381 32.492C31.505 31.5354 29.8344 30.0387 29.4702 29.172C30.064 29.4369 30.3925 29.9648 31.055 30.3212C31.5165 30.5695 31.912 30.8673 32.1898 31.1817C32.4751 31.5046 32.4812 31.4867 32.3146 31.8468ZM16.7369 23.8809C16.321 25.1047 16.2209 24.8317 15.2868 25.1182C14.7511 25.2825 14.1778 26.0325 13.6876 25.997C13.5034 25.6424 13.521 25.2921 13.9468 25.0386C14.5448 24.6824 16.1645 23.6665 16.7369 23.8809ZM34.0893 22.9883C33.998 23.3357 34.0285 23.3761 33.6138 23.3891C32.8604 23.4125 31.534 22.9829 31.0067 22.6431C31.1976 22.3113 32.777 22.3416 33.5016 22.2164C33.7665 22.1706 33.6999 22.1711 33.9356 22.349C34.1545 22.5144 34.1155 22.5471 34.0893 22.9883ZM26.4229 22.0549C26.491 22.3262 26.4842 22.7523 26.3638 23.0791C25.5104 23.2796 23.3553 22.6175 23.1893 22.4795C23.3068 22.0728 23.537 22.2187 23.9602 22.2493C26.0559 22.4012 25.5693 21.5444 26.4229 22.0549ZM32.6536 29.4363C32.302 29.2114 31.079 28.1575 30.9274 27.9165C31.2368 27.5094 32.1463 27.8613 32.664 28.1134C32.8824 28.2679 33.1168 28.4299 33.3144 28.5921C33.573 28.8045 33.6164 28.8664 33.572 28.9797C33.4004 29.417 33.1089 29.7277 32.6536 29.4363ZM22.6336 24.6737C22.9224 24.1033 23.152 24.4026 23.4227 24.7417C23.7184 25.112 23.9 25.1116 24.2095 25.4104C24.4831 25.6745 24.5251 25.886 24.8467 26.1429C25.1604 26.3935 25.5118 26.505 25.3496 26.8796C25.1424 27.3586 24.8594 27.0597 24.572 26.8136C24.2744 26.5587 24.1062 26.3916 23.8598 26.1136L22.6336 24.6737ZM15.3443 21.4991C15.7067 21.54 15.6238 21.4678 15.8863 21.4433C15.4158 22.2829 14.2358 21.5629 12.8122 22.1636C12.3681 22.3511 12.3207 22.316 11.9618 22.7531C11.5768 22.2528 12.0785 21.9669 12.3836 21.7489C13.5479 20.9172 13.7991 21.3251 15.3443 21.4991ZM20.9249 19.6488C20.6327 19.7052 20.4791 19.892 20.1703 19.5547C19.9603 19.3252 20.0646 19.025 20.1983 18.7063C20.307 18.447 20.5336 18.0004 20.5953 17.7479C20.7181 17.2452 20.2929 17.4849 20.4018 17.0275C20.6582 16.9731 20.7682 17.0068 21.0489 17.166C21.2782 17.6986 21.2262 18.9025 20.9249 19.6488ZM16.267 26.115C15.9822 26.2434 15.9226 26.2141 15.654 26.4434C15.3873 26.671 15.3971 26.82 15.1698 26.9937C14.7266 26.426 15.7068 25.5516 16.0484 25.2472C16.5796 24.7739 16.8721 24.4313 17.1958 24.8975C17.3249 25.0835 17.2951 25.0823 17.4397 25.2437C17.2565 25.6014 16.5205 26.0007 16.267 26.115ZM26.5864 24.143C26.6334 24.4238 26.3658 25.2136 26.0401 25.2208C25.8507 25.225 25.1843 24.788 25.0188 24.6593C24.5161 24.2685 24.7588 24.1225 23.8172 23.5689C23.4963 23.3802 23.4647 23.4432 23.5156 23.1966C23.8097 23.1119 24.0025 23.3662 24.2688 23.5259C24.5222 23.6779 24.8389 23.7939 25.1219 23.9211C26.393 24.4915 26.293 23.8404 26.5864 24.143ZM18.1719 21.4137C18.0744 21.5609 17.6759 21.3148 17.4137 21.2858C17.1728 21.2592 16.9981 21.3168 16.7781 21.3316C16.2324 21.3683 15.9758 20.8797 16.1599 20.3992C16.3061 20.0174 16.3418 19.877 16.6704 20.0922C17.1124 20.3817 18.5292 20.8739 18.1719 21.4137ZM22.567 28.7438C22.1304 28.4319 21.9231 27.6354 21.8622 27.0721C21.811 26.5989 21.1387 25.793 21.5406 25.3998C22.2039 25.4139 22.353 26.4149 22.4475 26.8701C22.5227 27.2328 22.639 28.3855 22.567 28.7438ZM17.8193 28.8152C17.7707 28.6399 17.7865 28.5691 17.8135 28.3561C17.8356 28.1813 17.865 28.0485 17.8989 27.8661C17.9571 27.5523 17.9507 27.2772 18.0032 26.9683C18.1051 26.3686 18.3749 25.3238 19.1205 25.8345C19.0428 26.2432 18.4577 27.7836 18.2435 28.2707C18.1612 28.458 18.1008 28.6111 17.9456 28.7411C17.865 28.8086 17.8837 28.7871 17.8193 28.8152ZM26.0954 25.9158C25.2743 26.0653 24.8784 25.3716 24.39 24.93C23.3441 23.9844 22.6115 24.4616 23.452 23.6592C24.0036 23.8565 24.4228 24.241 24.735 24.6307C25.322 25.3634 25.1593 25.1253 26.0474 25.5466L26.0954 25.9158ZM25.1518 19.2749C25.5554 19.4673 25.078 19.9394 24.8727 20.0439C23.7354 20.6231 24.5165 20.4063 23.2814 20.5483C22.758 20.6085 22.9424 20.7203 22.5868 20.9323C22.2271 20.1858 23.3777 20.1064 24.4028 19.5326C24.59 19.4278 24.9101 19.1597 25.1518 19.2749ZM23.9558 18.4868C24.1685 18.3664 24.4495 18.1667 24.6805 18.4154C24.8728 18.6224 24.8117 18.8948 24.4714 19.1014C23.3687 19.7707 23.1718 19.4262 22.5351 20.3657L22.2076 20.1852C22.2569 19.6741 22.998 19.3971 23.3425 19.0555C23.5561 18.8437 23.7407 18.6085 23.9558 18.4868ZM18.4037 20.7869C17.8161 20.6822 17.9251 20.1332 17.0442 19.9526C16.6744 19.8769 16.4271 19.8898 16.4703 19.4765C16.4921 19.2694 16.6544 18.9242 16.7949 18.7922C17.1577 18.4514 17.4972 19.2209 17.8073 19.6125C18.0909 19.9707 18.427 20.3959 18.4037 20.7869ZM18.283 18.1007C18.2884 18.6094 18.2904 19.2725 18.4587 19.6823C18.5601 19.9291 18.9662 20.2108 18.5916 20.2767C18.283 20.3309 18.1116 19.4636 17.7696 19.0238C17.5607 18.7551 17.1908 18.6872 17.0648 18.5142C16.9218 18.3179 17.3239 18.1015 17.4741 18.0293C17.6959 17.9227 17.9927 17.9461 18.283 18.1007ZM19.4282 20.0104C18.3233 19.9009 18.7867 19.5681 18.717 18.8691C18.6226 17.9223 18.2066 17.9482 18.4141 17.5206C19.1621 17.9571 19.4526 18.5464 19.4027 19.3272C19.3803 19.6771 19.4742 19.7635 19.4282 20.0104ZM19.4965 24.6207C19.6007 24.2153 19.4119 24.1414 19.6629 23.7003C20.1382 23.5408 20.3007 23.7473 20.3726 24.1919C20.4245 24.5118 20.464 24.9289 20.3583 25.2422L19.4252 25.494C19.4442 25.2362 19.5723 24.8946 19.4965 24.6207C19.1334 25.6607 17.9915 25.13 17.4417 24.5042C17.6037 23.8596 18.202 23.3783 18.5571 23.0346C19.2507 23.2976 19.3975 24.6521 19.4755 24.5781C19.4843 24.5697 19.489 24.6067 19.4965 24.6207ZM31.3045 16.5843C31.2198 17.0402 30.9037 17.1364 30.5259 17.2775C30.2149 17.3981 29.6894 17.6038 29.2921 17.5922C29.4464 16.9783 30.2729 17.0816 30.7344 15.9832C30.8406 15.7302 30.8167 15.7691 31.0228 16.0286C31.2179 16.2746 31.3593 16.2889 31.3045 16.5843ZM17.0307 22.5044C17.2927 22.385 17.4164 22.3993 17.7368 22.3804C18.1311 22.3571 18.1477 22.4103 18.2772 22.676C18.1848 22.7367 17.1348 23.7674 16.6974 23.6982C16.5972 23.4829 16.5706 23.1864 16.5785 22.9492C16.5878 22.6766 16.8326 22.5947 17.0307 22.5044ZM21.8998 24.7134C21.6438 24.8036 21.5424 24.8487 21.3334 24.5868C21.2122 24.4346 21.0073 24.2246 20.9113 24.0618C20.6594 23.6351 20.9811 23.1273 21.4367 22.9306C21.6345 23.0431 21.6346 23.1116 21.6727 23.3315C21.8042 24.0877 22.1682 24.1224 21.8998 24.7134ZM24.2187 11.7647C24.4531 11.4736 24.8599 11.4122 25.1919 11.5521C25.2681 12.309 24.6153 13.5168 24.0568 13.9336C24.1807 13.5495 24.3259 13.1559 24.3812 12.7675C24.4661 12.173 24.2084 12.2089 24.2187 11.7647ZM32.9491 19.3165L33.2866 20.4474C32.8948 20.4332 31.5339 20.3918 31.2247 20.0846C31.3993 19.9106 31.6599 19.8486 31.8929 19.7605C32.2024 19.6435 32.6633 19.3345 32.9491 19.3165ZM14.8914 14.1295L14.2893 13.8146C14.4699 13.5994 14.6459 13.3976 14.8339 13.1901C15.2916 13.361 16.5035 14.3932 16.4467 14.739L14.8914 14.1295ZM22.6698 18.539C22.8875 18.306 23.2837 17.1521 23.6968 17.7839C23.8291 17.9864 23.6729 18.3733 23.4692 18.5231C23.3006 18.647 23.0782 18.6807 22.8835 18.7987C22.4338 19.0711 22.3407 19.772 21.9572 20.0275L21.786 19.8144C21.9308 19.2561 22.3292 18.9034 22.6698 18.539ZM21.4913 19.8618C20.9505 19.5895 21.2391 19.282 21.5731 18.479C21.7553 18.0407 21.7585 17.4019 22.0121 17.263C22.5913 17.6007 21.9315 19.3781 21.4913 19.8618ZM19.3504 13.2638C18.8576 13.2545 18.8202 12.8527 18.5869 12.5895C18.3754 12.351 17.9827 12.0569 17.7496 11.8515C17.9494 11.612 18.3598 11.5082 18.679 11.5675C18.8388 11.9727 18.82 12.0332 19.0221 12.4036C19.1604 12.657 19.4399 13.0205 19.3504 13.2638ZM19.5924 19.7977C19.4628 19.5924 19.5425 19.3349 19.578 19.0518C19.7691 17.5264 18.8859 17.7953 19.0991 17.1458C19.5517 17.1825 19.6486 17.2527 19.8012 17.5974C19.9454 17.9234 19.9742 17.9073 19.9152 18.3571C19.7465 19.6433 20.0322 19.7105 19.5924 19.7977ZM21.5004 22.5323C21.1158 22.7043 20.5165 22.4763 20.1571 22.2199C20.1344 21.774 20.4087 21.357 20.9507 21.5587C21.2134 21.6565 21.3075 22.0492 21.5004 22.5323ZM20.2101 29.3474C20.0767 29.0246 20.0892 28.5863 20.0972 28.1798C20.1096 27.5622 20.1874 27.4887 20.4352 26.8838C20.5419 27.2029 20.4717 27.7152 20.5027 28.1058C20.5302 28.4527 20.6914 28.9196 20.5478 29.2989C20.4447 29.3307 20.3564 29.3524 20.2101 29.3474ZM13.0148 19.6553C12.9294 19.7212 13.051 19.6983 12.805 19.7963L12.1587 20.0521C11.0829 20.5389 10.8595 19.615 11.9568 19.4603C12.275 19.4154 12.7007 19.5032 13.0148 19.6553ZM20.6048 22.8329C20.4699 23.4166 19.8831 23.4917 19.5496 23.4272C19.3132 22.9785 19.4895 22.6002 19.8977 22.3839L20.6048 22.8329ZM22.2445 24.2551C22.0699 24.0527 21.7179 23.0466 21.791 22.815C22.0225 22.9201 22.0448 22.9992 22.2332 23.1441C22.4633 23.3211 22.6136 23.3006 22.8132 23.3388C22.7269 23.8474 22.7377 24.1417 22.2445 24.2551ZM19.4977 22.1409C19.3011 21.9875 19.166 21.7314 18.9033 21.5021C18.6744 21.3025 18.4234 21.0617 18.607 20.8144L18.712 20.85C18.7209 20.855 18.7374 20.866 18.7469 20.872C19.6291 21.4447 19.6743 21.1191 19.9371 21.6967L19.4977 22.1409ZM16.1441 22.0883C16.0369 21.9926 16.0982 22.0557 16.0534 21.9746C16.2985 21.7972 16.6727 21.6155 17.0471 21.606C17.4332 21.5963 17.8647 21.5495 18.1907 21.7672C18.2001 22.4446 17.8323 22.1575 17.3129 21.9723C16.7667 21.7778 16.6533 21.9922 16.303 22.1957C16.2681 22.1735 16.1661 22.1079 16.1441 22.0883ZM18.99 22.8508C18.6035 22.7876 18.5316 22.6178 18.4766 22.3393C18.4348 22.128 18.3738 21.8037 18.4743 21.6453C19.008 21.7933 19.0518 22.009 19.3969 22.291C19.2708 22.4915 19.1397 22.7283 18.99 22.8508ZM13.7743 18.2617C13.4379 18.15 13.0902 18.0214 12.7506 17.9226C12.3371 17.8025 12.2523 17.9433 11.8293 17.8375L11.8855 17.6356C12.0064 17.3332 11.9991 17.352 12.3264 17.3927C12.522 17.417 12.7066 17.4465 12.9017 17.5241L13.6097 17.9899C13.8199 18.1952 13.7145 18.047 13.7743 18.2617ZM18.5156 29.0099C18.2346 28.7502 18.3603 28.568 18.4817 28.1618C18.6006 27.7636 18.5566 27.4933 18.9712 27.5173C19.0377 27.7406 19.0139 28.1046 18.9936 28.3516C18.9563 28.8086 18.9151 28.9674 18.5156 29.0099ZM14.0533 26.4577C14.2235 25.7816 15.0101 25.5243 15.3411 25.5255L14.5287 26.7454C14.333 26.6966 14.179 26.5903 14.0533 26.4577ZM15.5633 27.7705L15.3894 27.7139C15.4923 27.1013 16.0301 26.4719 16.4973 26.2865L15.8601 27.8744L15.5633 27.7705ZM19.9655 21.193C20.0035 20.8972 20.1403 20.6296 20.2089 20.3391C20.2936 19.9807 20.1703 19.7778 20.6146 19.9213C20.6361 20.7638 20.857 21.516 19.9655 21.193ZM17.4836 28.5969C17.2698 28.649 17.1617 28.6606 16.9442 28.5796C16.9748 28.1511 17.2483 27.5509 17.5806 27.2996C17.7097 27.4593 17.702 27.6707 17.6667 27.9162C17.6339 28.1452 17.5876 28.3907 17.4836 28.5969ZM19.819 21.1433C19.2744 20.9451 19.024 20.8559 19.1196 20.3281C19.3185 20.2254 19.3461 20.2502 19.5541 20.1767C19.7227 20.1171 19.7519 20.0669 19.9048 20.0245C19.9571 20.2553 19.9082 20.3194 19.8424 20.5957C19.7907 20.8132 19.8323 20.9806 19.819 21.1433ZM24.6504 23.351L25.6841 23.4599C26.1564 23.5558 26.1171 23.5253 26.4225 23.4126C26.5861 23.3522 26.4398 23.3767 26.6107 23.3645C26.6629 23.5759 26.6555 23.6653 26.5257 23.8913C26.203 23.9041 25.8387 23.845 25.5196 23.7637C25.3313 23.7159 25.156 23.6522 24.9806 23.5681L24.6504 23.351ZM28.7802 15.6301L28.617 15.6785C28.7999 15.2839 28.8657 15.2237 28.9672 14.7715C29.1222 14.082 29.0323 14.0773 29.27 14.0193C29.3108 14.2461 29.5395 14.3773 29.5572 14.477C29.5045 14.9342 29.2004 15.1446 28.9947 15.4595C29.0089 15.4548 29.0358 15.4308 29.0359 15.4416L29.6203 15.0961C29.8591 15.1936 30.0676 15.3012 30.2807 15.4196C30.6025 15.5983 30.5343 15.5405 30.6811 15.7868C30.5431 16.1736 29.9852 16.5187 29.541 16.8579C28.32 17.7906 28.5345 17.7389 27.1406 18.5279C26.8323 18.7022 26.0819 19.1696 25.8246 19.1834C25.8651 18.1027 26.9709 17.6566 27.4796 16.972C26.4137 17.4225 25.96 18.2787 25.7596 18.468C25.1365 18.3833 25.218 17.8907 25.4312 17.347C25.6288 16.8432 26.0183 16.561 26.3723 16.2698C27.4618 15.3734 27.2034 14.6339 27.9955 13.5905L28.7881 13.8838C28.7215 14.9226 28.0087 16.0572 27.4796 16.972C27.773 16.7883 28.5902 15.9699 28.7802 15.6301ZM22.7606 22.2617C22.4152 22.3745 22.0068 22.4073 21.7787 22.0806C21.9339 21.9094 22.2611 21.7728 22.4826 21.7191C22.8917 21.6198 22.9266 21.9401 22.7606 22.2617ZM22.986 23.1416C22.2351 22.7818 21.935 23.2118 22.0034 22.5221C22.2047 22.4857 22.322 22.5726 22.5847 22.5559C22.8051 22.542 22.8531 22.4922 23.0888 22.52L22.986 23.1416ZM20.6336 23.9659C20.7724 24.2324 20.7212 24.2508 21.004 24.573C21.251 24.8542 21.3193 24.9064 21.0934 25.2814L20.5582 25.1372L20.6336 23.9659ZM22.256 20.9823L21.3309 21.1736C21.0019 21.2287 21.0564 21.0395 21.2623 20.8961C21.371 20.8204 21.4444 20.7877 21.5443 20.7177C21.7865 20.548 21.8232 20.4988 22.1172 20.4859C22.2336 20.6628 22.2288 20.7611 22.256 20.9823ZM21.3568 21.4195C21.5423 21.2485 22.051 21.0803 22.4434 21.2412C22.4181 21.5568 21.8469 21.785 21.6649 21.8309C21.4276 21.6798 21.4149 21.6486 21.3568 21.4195ZM24.3847 27.5279C24.1326 27.3146 23.6632 26.4434 23.6794 26.1752C23.813 26.3346 24.0061 26.5503 24.1799 26.7274C24.2656 26.8146 24.3638 26.9218 24.4634 27.0097C24.5313 27.0696 24.5712 27.0923 24.628 27.1392C24.6809 27.1827 24.6614 27.1664 24.7134 27.2123L24.7936 27.2955C24.6473 27.504 24.6073 27.5286 24.3847 27.5279ZM16.5832 22.1594C16.828 22.0175 17.0662 21.887 17.344 22.2105C17.1606 22.3573 16.9772 22.3345 16.7295 22.5048C16.5156 22.6517 16.418 22.8126 16.1497 22.7795C16.0367 22.4013 16.3674 22.2845 16.5832 22.1594ZM20.9974 20.005C21.2277 19.9784 21.4142 19.9912 21.6768 20.1606C21.5594 20.3951 21.1504 20.7328 20.944 20.869C20.8566 20.5882 20.7997 20.3396 20.9974 20.005ZM22.7778 17.9567C22.6136 18.1045 22.4706 18.3292 22.3395 18.4128C22.3044 18.0156 22.3183 17.1103 22.9407 17.4042C23.035 17.7434 23.0198 17.7389 22.7778 17.9567ZM21.3359 18.4274C21.2995 18.2479 21.4198 17.8878 21.4232 17.6548C21.426 17.4674 21.4252 17.4579 21.3394 17.341C21.1958 17.1452 21.1884 17.2749 21.1711 17.0534C21.3964 16.9843 21.4417 17.0029 21.6755 17.1474C21.7329 17.4067 21.5564 18.1736 21.3359 18.4274ZM25.6726 26.5718C25.1384 26.2705 24.8903 25.9886 24.6708 25.5542C24.8673 25.6794 24.9819 25.8205 25.1769 25.948C25.4494 26.1263 25.5673 26.0724 25.8107 26.1921L25.6726 26.5718ZM20.1967 18.1298C20.1965 18.1286 20.1848 17.9973 20.1837 17.985C20.1321 17.3798 19.8554 17.4403 19.9135 17.0096C20.5274 17.3594 20.4551 17.6695 20.262 18.3452L20.1967 18.1298ZM16.9367 24.1205C17.0644 23.8695 17.0881 23.8479 17.2894 23.6917C17.4983 23.5297 17.4355 23.5297 17.7016 23.556L17.3102 24.2234L16.9367 24.1205ZM16.6954 21.466C16.4977 21.6145 16.6236 21.5763 16.3603 21.6463C16.1554 21.7007 16.1823 21.7181 15.9957 21.641L16.0945 21.3712C16.344 21.3524 16.4566 21.3587 16.6954 21.466ZM17.9981 2.58601C19.1693 4.39693 19.2177 6.17074 19.4702 8.3894C19.5183 8.81126 19.5804 9.19794 19.6363 9.57383C19.6919 9.94772 19.9164 10.4654 19.7968 10.8142C19.4458 10.9778 18.8445 11.1112 18.296 10.9515C17.8354 10.8174 17.8984 10.7921 17.7852 10.4214C17.3648 9.04506 16.8527 6.8796 16.2929 5.78116C14.5537 2.36855 12.8986 2.43181 12.6169 1.76529C13.5864 1.13416 14.6188 1.44944 15.6859 2.32035C17.0491 3.43274 17.0454 4.21555 17.6614 4.74961C17.7007 3.87944 17.2953 3.38629 16.7964 2.75009C16.3537 2.18525 14.7753 1.29909 15.45 0.815646C15.6405 0.679108 15.73 0.466875 16.3117 0.842401C16.9946 1.28338 17.5591 1.90745 17.9981 2.58601Z" fill="white"/>
  </mask>
  <g mask="url(#mask0_3_49)">
    <path d="M-0.00619006 -1.25354L-1.45294 39.504L34.3836 40.7761L35.8304 0.0185283L-0.00619006 -1.25354Z" fill="#E5E7EB"/>
  </g>
</svg>