<svg width="32" height="31" viewBox="0 0 32 31" fill="none" xmlns="http://www.w3.org/2000/svg">
<path d="M2.66667 11.736L16.381 21.6982L29.3332 11.736M6.33366 30H25.667C27.5338 30 28.4666 29.9999 29.1796 29.638C29.8069 29.3196 30.3175 28.8116 30.637 28.1867C31.0004 27.4764 31 26.5466 31 24.6869V14.2884C31 13.3511 31 12.8824 30.8804 12.4496C30.7744 12.0663 30.5999 11.7049 30.3657 11.3829C30.1014 11.0194 29.7348 10.7264 29.0003 10.1406L19.6686 2.69743C18.5099 1.77324 17.9301 1.31131 17.2858 1.12787C16.7173 0.966011 16.1162 0.95764 15.5434 1.10375C14.8942 1.26934 14.3023 1.71537 13.1183 2.60724L3.1167 10.1416C2.34048 10.7263 1.95205 11.0186 1.6722 11.3881C1.42433 11.7154 1.23962 12.0857 1.12707 12.48C1 12.9253 1 13.4099 1 14.3794V24.6867C1 26.5465 1 27.4764 1.36331 28.1867C1.68289 28.8116 2.19245 29.3196 2.81966 29.638C3.5327 29.9999 4.46682 30 6.33366 30Z" stroke="#E5E7EB" stroke-width="2" stroke-linecap="round" stroke-linejoin="round"/>
</svg>
